HIERARCHY
ROOT Hips
{
   OFFSET 0.00000 0.00000 0.00000
   CHANNELS 6 Xposition Yposition Zposition Zrotation Xrotation Yrotation
   JOINT Spine
   {
      OFFSET 0.000000 10.701450 0.000000
      CHANNELS 3 Zrotation Xrotation Yrotation
      JOINT Spine1
      {
         OFFSET -0.000000 23.091659 0.114894
         CHANNELS 3 Zrotation Xrotation Yrotation
         JOINT HEad
         {
            OFFSET 0.000000 7.860744 0.010206
            CHANNELS 3 Zrotation Xrotation Yrotation
            End Site
            {
               OFFSET -0.261000 11.496780 2.262555
            }
         }
         JOINT LeftShoulder1
         {
            OFFSET 8.091000 -0.326025 -0.198000
            CHANNELS 3 Zrotation Xrotation Yrotation
            JOINT LeftArm
            {
               OFFSET 9.254430 -0.003042 0.289908
               CHANNELS 3 Zrotation Xrotation Yrotation
               JOINT LeftForeArm
               {
                  OFFSET 29.490208 0.089226 -1.281906
                  CHANNELS 3 Zrotation Xrotation Yrotation
                  JOINT LeftHand
                  {
                     OFFSET 24.807870 0.076824 0.919944
                     CHANNELS 3 Zrotation Xrotation Yrotation
                     End Site
                     {
                        OFFSET 15.069871 -0.540000 1.352619
                     }
                  }
               }
            }
         }
         JOINT RightShoulder
         {
            OFFSET -8.091000 -0.326025 -0.198000
            CHANNELS 3 Zrotation Xrotation Yrotation
            JOINT RightArm
            {
               OFFSET -9.254430 -0.003042 0.289908
               CHANNELS 3 Zrotation Xrotation Yrotation
               JOINT RightForeArm
               {
                  OFFSET -29.607386 0.089226 -1.281906
                  CHANNELS 3 Zrotation Xrotation Yrotation
                  JOINT RightHand
                  {
                     OFFSET -24.742889 0.076824 0.919944
                     CHANNELS 3 Zrotation Xrotation Yrotation
                     End Site
                     {
                        OFFSET -14.968080 -0.540000 1.352619
                     }
                  }
               }
            }
         }
      }
   }
   JOINT LeftUpLeg
   {
      OFFSET 8.051219 -7.800363 0.091485
      CHANNELS 3 Zrotation Xrotation Yrotation
      JOINT LeftLeg
      {
         OFFSET 0.000000 -39.980428 1.235430
         CHANNELS 3 Zrotation Xrotation Yrotation
         JOINT LeftFoot
         {
            OFFSET -0.228195 -37.883157 -1.314531
            CHANNELS 3 Zrotation Xrotation Yrotation
            JOINT LeftToes
            {
               OFFSET -0.036000 -3.973581 7.649189
               CHANNELS 3 Zrotation Xrotation Yrotation
               End Site
               {
                  OFFSET 0.072000 -0.042705 8.801811
               }
            }
         }
      }
   }
   JOINT RightUpLeg
   {
      OFFSET -8.051219 -7.800363 0.091485
      CHANNELS 3 Zrotation Xrotation Yrotation
      JOINT RightLeg
      {
         OFFSET 0.000000 -39.980428 1.235430
         CHANNELS 3 Zrotation Xrotation Yrotation
         JOINT RightFoot
         {
            OFFSET 0.228195 -37.883157 -1.314531
            CHANNELS 3 Zrotation Xrotation Yrotation
            JOINT RightToes
            {
               OFFSET 0.036000 -3.973581 7.649189
               CHANNELS 3 Zrotation Xrotation Yrotation
               End Site
               {
                  OFFSET -0.072000 -0.123705 8.801811
               }
            }
         }
      }
   }
}
MOTION
Frames: 18
Frame Time: 0.016670
82.294911 65.236677 -105.518158 -10.927307 -7.762163 -30.670531 -1.795797 24.617293 8.669328 1.563212 -1.425347 1.925616 4.736145 -7.285274 0.905340 -5.484720 -9.212999 -6.508495 -153.526861 -74.599319 -131.394835 -38.153679 69.815496 -92.802381 11.810796 -0.676043 -7.051988 10.142787 -23.561424 10.565655 64.680771 -7.198012 38.086125 13.498032 43.351965 119.568909 -14.944336 3.535665 8.387074 17.854225 -34.166618 32.018120 -3.848065 71.173310 6.993236 73.768399 12.226495 -7.940757 -96.698068 -29.609498 -25.227259 -35.042327 -6.886141 -5.446974 -2.231316 25.241563 8.774911 26.795723 27.896308 -5.244563 2.770860 -0.234020 -6.369591
85.481957 68.965610 -103.902367 -11.716859 -7.412149 -34.366254 0.816293 23.502775 6.348570 1.390173 -1.846869 1.875010 1.503665 -4.249212 2.548004 -8.148088 -8.524623 -1.669843 -151.562226 -75.363863 -130.294068 -38.064627 71.096074 -94.984975 12.616871 -0.262917 -4.309602 8.844405 -21.616719 13.677985 65.016243 -6.610879 37.410961 14.735387 42.590054 118.578928 -15.991599 9.009490 9.904900 13.733316 -29.037829 29.387186 -1.504866 63.167147 5.948717 54.447662 12.907054 -5.690830 -73.929606 -36.294136 -18.361717 -32.358827 -5.092515 -8.885063 -1.609448 30.181189 12.508265 25.243681 27.756828 -4.567765 14.973697 5.070362 -11.098058
88.471860 72.647976 -102.337988 -12.598423 -6.815088 -37.377134 3.195744 22.890062 4.515766 1.776616 -1.665358 1.787392 -1.640129 -1.657366 3.982895 -9.916519 -8.252968 2.486637 -149.654813 -76.061048 -128.214139 -37.436755 72.003274 -97.246000 13.000770 -0.503370 -5.747353 7.481461 -20.429702 16.325487 64.751812 -6.137898 36.545846 15.849172 42.214486 117.670458 -15.556198 4.913116 9.505548 10.088714 -24.282427 26.085194 0.176362 54.303487 4.911577 35.601664 13.433486 -3.817780 -54.825840 -15.465020 -24.336729 -29.238599 -3.899474 -12.360429 -2.854731 38.062045 16.244203 28.486667 27.478756 -3.496693 -0.911265 -6.603178 -4.466488
91.388663 76.334051 -100.972660 -12.952698 -6.334480 -40.373921 4.851523 22.124660 3.184418 1.950298 -1.467167 1.719806 -4.633842 0.533810 5.231565 -11.320245 -8.400123 5.751117 -148.108349 -76.771961 -126.354210 -36.675988 72.584892 -99.087672 13.722549 -0.012158 -4.063391 6.568449 -20.004352 18.413579 64.380407 -5.725821 35.710503 16.931762 41.655486 117.009760 -15.862209 8.577922 10.402008 6.715269 -20.405636 22.665238 2.841288 46.819570 1.164104 25.246730 14.261832 -2.759372 -43.235893 -23.203478 -12.834900 -25.046218 -2.037646 -15.189239 -4.904008 46.336980 19.904119 31.549378 27.033172 -2.469119 4.469188 -1.128223 -6.142754
94.018067 79.723090 -99.869212 -11.134940 -6.203213 -43.296450 4.005312 20.729288 3.002800 1.955744 -1.160022 1.590207 -7.335575 2.337440 6.270552 -12.341143 -8.890681 8.069070 -146.878369 -77.212912 -124.653152 -35.807550 73.025343 -100.731951 13.846790 -0.263816 -5.399212 5.598625 -19.917023 20.070581 64.061451 -5.345335 34.631159 17.761857 41.230662 116.438497 -15.465285 6.414741 10.881389 2.733595 -18.241304 19.917445 4.506645 39.363196 -1.701054 14.653782 15.343301 -1.182522 -23.343630 -10.253376 -18.587149 -22.061933 -0.615108 -16.837133 -6.221879 54.498527 22.474037 33.634006 26.705956 -1.323390 7.749040 -5.880356 -0.400851
96.367329 82.717818 -99.148482 -9.491940 -6.104823 -45.809570 2.210306 20.225706 4.102124 1.810781 -0.617502 1.718570 -8.591890 3.000583 6.317926 -11.601472 -10.052143 9.113929 -145.712715 -77.890070 -123.196136 -34.824047 73.483505 -102.016614 14.139907 0.050807 -4.897239 5.857189 -21.345371 20.462808 63.645800 -5.111792 33.493270 18.508629 40.923147 116.328913 -15.276787 8.731976 11.917633 -0.516134 -16.399592 16.536334 5.869811 31.936127 -3.928735 3.746878 15.632020 0.267159 -16.701114 -11.921942 -6.666623 -18.194726 1.482911 -17.833653 -6.197766 58.261384 22.834077 22.549449 26.495984 -0.514708 6.148923 -13.846154 0.165758
98.559044 85.181664 -98.830355 -5.980100 -6.263356 -49.021852 -1.546411 18.273768 5.998317 1.886718 -0.506174 1.540556 -9.802482 3.773694 6.405375 -10.821856 -11.432485 9.230419 -145.356684 -78.444347 -121.741784 -34.007324 73.469661 -103.177329 13.897502 -0.174549 -6.528121 6.368916 -22.987932 20.569277 63.484361 -4.750935 32.452035 19.303202 40.450166 116.607708 -15.012600 7.954236 12.811268 -4.466173 -16.229788 13.632807 7.750033 25.047537 -4.856211 -7.830682 15.794071 1.797465 10.988454 -7.300919 -9.162489 -15.787571 3.461804 -17.405574 -5.399456 57.368009 21.583845 19.578099 27.873235 0.969795 0.155261 -32.994926 7.916454
100.486000 87.046765 -98.875111 -2.768424 -6.642433 -52.444177 -5.337707 16.497354 8.167968 1.874388 -0.254677 1.910608 -10.287368 4.239648 6.342233 -9.424328 -12.619970 8.937046 -145.186613 -79.265909 -120.555967 -33.199248 73.352823 -103.706362 13.955579 0.051340 -6.757088 6.334933 -24.640888 20.824699 63.457867 -4.298319 31.007635 19.701384 40.113049 116.727550 -14.895820 9.500514 13.987929 -7.733987 -16.843019 9.966087 9.948042 19.983523 -4.908877 -20.103760 16.072817 2.889664 12.002362 -5.989039 2.989832 -13.842418 6.811692 -16.817437 -3.408651 50.970153 17.978099 12.525751 28.152126 2.202428 0.651609 -44.900615 4.473117
102.210263 88.315610 -99.198063 -0.002086 -7.200026 -56.063624 -8.857193 14.661783 10.329796 2.206066 -0.073406 2.475657 -10.041593 4.635544 6.187401 -7.512406 -13.873046 8.648903 -145.564199 -80.264941 -119.672264 -32.544940 72.334374 -103.471157 14.141902 -0.096852 -7.940771 5.529408 -26.307249 21.079642 63.843178 -3.846469 29.455061 20.067437 39.904892 117.070002 -14.994268 9.073218 14.983289 -10.134606 -17.681362 5.658714 12.383407 16.562978 -4.123440 -32.774318 16.517744 3.676424 33.546088 -4.616923 -9.045192 -13.002660 10.166698 -16.457687 -2.947853 42.139487 15.915097 9.710165 28.478610 3.153604 -5.403441 -54.420526 0.153154
104.029740 88.847426 -99.697255 1.929733 -7.939243 -59.946549 -12.341097 12.281279 13.152567 2.499677 -0.664402 3.863856 -8.772006 5.143477 5.904922 0.345679 -15.483443 -1.923754 -156.373971 -90.956004 -123.096866 -32.855030 69.484532 -103.808500 15.189805 -0.499014 -8.319542 8.497380 -31.570015 10.022956 61.600820 8.271888 28.426923 20.503430 40.011596 117.305630 -15.016087 10.349307 16.363537 -11.776497 -18.399710 -0.213506 11.349196 14.869146 -3.221871 -23.318204 18.784140 3.612312 16.744808 -3.223371 1.799958 -13.064658 12.867404 -16.160263 -2.797009 32.611182 15.075006 3.059890 28.391636 4.310890 14.273968 -46.711203 -8.367054
105.807522 88.966931 -100.278967 3.907388 -8.983533 -64.173520 -16.035616 10.089732 15.528647 2.269827 -1.223467 4.849128 -7.353192 5.648719 5.618426 5.652716 -17.851280 -8.507051 -165.002754 -96.978960 -128.477019 -32.619443 66.136845 -104.008031 16.532789 -0.990152 -8.361236 9.636476 -36.070154 3.649804 61.214969 16.659714 28.158643 21.268854 39.415430 116.969517 -15.333758 11.088882 17.170254 -13.313861 -19.422427 -6.527651 10.676703 13.267660 -2.737597 -14.270684 19.553254 2.076523 1.300493 -4.918670 6.326854 -14.258288 14.896571 -15.468995 -2.624971 23.527524 14.528268 -1.270532 28.025753 5.178310 20.373916 -43.177324 -16.748812
107.602185 88.762730 -100.854309 5.794271 -10.039742 -68.263861 -19.760600 8.346094 17.898635 1.770917 -1.126658 5.894816 -5.955984 5.896794 5.377948 9.035169 -19.282138 -12.087224 -169.249929 -100.289163 -131.178455 -31.983587 63.171682 -104.422350 17.571369 -1.475486 -8.053724 9.695502 -39.317533 -0.461803 61.440789 21.754764 27.731384 22.169233 38.464490 116.309420 -15.764543 11.554258 17.373471 -14.899149 -20.433633 -12.870486 11.161379 11.375444 -2.577580 -5.543741 19.934522 0.356566 -12.417872 -9.518000 7.009255 -15.780585 16.217900 -14.563370 -2.437409 15.242925 13.795910 -3.786296 27.008742 5.709933 18.578692 -41.509378 -22.057649
109.413603 88.348797 -101.379441 7.382238 -11.197516 -71.899079 -22.398567 6.360658 19.705461 1.526366 -1.462965 6.481933 -4.633564 6.104313 5.202112 11.806003 -20.573518 -14.353076 -170.674857 -101.775713 -131.975265 -31.569380 60.606509 -104.243781 18.262912 -1.996743 -7.574894 8.454983 -41.756590 -2.728171 61.874376 23.640142 27.254526 23.439546 39.790172 115.601771 -15.543832 12.066770 17.467664 -16.277963 -20.761448 -19.184065 12.565376 9.072983 -2.442876 2.847164 20.045058 -1.427104 -23.862852 -16.944335 5.880207 -17.470760 16.738357 -13.001492 -2.470035 8.713210 12.830457 -4.844000 25.117688 5.976139 12.731370 -40.937203 -24.038762
111.049307 87.394780 -101.843079 8.004194 -12.187002 -75.202773 -24.475373 5.254246 20.835630 1.063805 -1.245595 6.591717 -4.176181 5.914788 5.314180 13.765498 -20.868412 -15.863020 -168.429132 -101.325733 -129.348483 -31.144966 60.244645 -102.455993 19.208550 -1.514879 -7.789050 8.535465 -43.111809 -5.017249 64.615406 23.686739 25.650943 25.244763 39.558693 113.566710 -15.792348 14.193442 12.025902 -16.830348 -20.913223 -24.882273 13.494937 7.683342 -1.264098 11.394209 20.119482 -3.360643 -31.365991 -16.252744 8.808361 -19.212977 17.717364 -10.596811 -1.736712 2.559573 10.669065 -3.492453 22.395096 6.105415 2.227177 -40.225378 -26.807285
112.533348 86.480015 -102.190646 7.858448 -12.484307 -77.703169 -25.660623 4.694906 21.397856 0.146660 -1.063350 6.442759 -3.864247 6.028695 5.499964 15.578777 -20.755224 -16.544168 -164.594131 -99.177352 -126.528735 -30.702517 61.097429 -98.999856 20.534088 -0.229227 -9.063679 8.535566 -44.120546 -6.261095 67.218310 23.386494 24.441552 25.644476 38.461659 110.325532 -13.998891 17.569528 4.712359 -16.119376 -20.636334 -30.220698 13.956341 6.646023 0.611036 19.996405 19.808877 -5.470512 -39.948912 -15.101951 12.561659 -20.314764 19.644449 -7.650159 -0.290733 -3.949966 7.493446 -0.906719 18.800109 6.170697 -4.293307 -37.289964 -25.650490
113.910750 85.585936 -102.442654 6.909986 -12.498164 -79.737056 -26.470671 4.825353 21.458457 -0.159749 -0.743338 6.065594 -3.822599 6.537197 5.783713 16.606143 -20.215232 -16.348491 -161.380185 -96.997203 -124.481249 -30.258015 61.996500 -95.418173 21.938064 0.981324 -9.969420 9.314238 -45.125988 -6.896395 69.426202 22.764332 23.641240 24.732846 36.825412 106.678887 -9.899610 21.876507 -2.960345 -14.754209 -19.643074 -35.142915 14.009126 5.856804 3.112095 28.622721 19.397046 -7.659263 -49.386564 -13.660821 16.590115 -21.198112 22.019347 -4.361558 1.160527 -10.594025 3.538388 1.951987 15.242436 6.276385 -7.895664 -33.311468 -22.058936
115.185106 84.723147 -102.605122 5.654014 -12.550949 -81.178567 -26.505995 5.772758 19.997081 1.280468 -0.101328 5.747731 -4.405352 7.524583 6.283870 16.303513 -19.634031 -13.934626 -159.249317 -95.506706 -124.374767 -29.562958 63.554398 -92.557806 23.347105 2.006921 -10.508327 11.072796 -45.678297 -4.517086 71.861711 21.393006 23.472900 20.757474 32.055744 101.634226 -5.982689 14.790759 8.984535 -12.626381 -18.640583 -38.774188 11.996203 5.632314 7.636257 37.646886 19.269425 -9.923399 -60.033832 -11.951040 19.894116 -22.931179 23.456509 -0.461064 3.890739 -15.439433 -2.898194 2.159891 11.804228 6.532018 -4.564209 -27.175653 -14.440128
116.394690 83.890074 -102.713841 4.360717 -12.490450 -81.993163 -27.904987 7.686208 17.948363 1.540714 0.727271 5.853516 -5.154746 7.785601 7.504194 15.144526 -20.309704 -11.034384 -159.253565 -94.877714 -125.836946 -29.125938 65.046712 -90.543542 23.771186 2.153849 -10.718768 12.685537 -46.161704 -1.028468 73.458077 21.634976 23.031594 13.937956 26.469293 95.880017 0.421441 15.026163 10.165555 -10.095629 -17.280771 -41.513620 9.440842 4.464768 13.191313 47.771890 18.154470 -11.337317 -69.568981 -10.387681 19.448941 -25.079772 23.695057 3.713158 8.945092 -18.525788 -11.279835 -1.013615 10.199731 6.439997 -1.357423 -24.458551 -7.015650
